<svg xmlns="http://www.w3.org/2000/svg"><style>:root svg:not(:target){display:none}</style><svg viewBox="0 6 32 12" id="arrow"><path d="M0 11v2h25v4l7-5-7-5v4z"></path></svg><svg viewBox="0 0 24 24" id="burger-menu"><path stroke="#000" stroke-width="1.5" d="M0 4.25h24m-24 8h24m-24 8h24"></path></svg><svg viewBox="0 0 280 280" id="cat_sitting"><path d="M179.68 29h-.76a6.956 6.956 0 0 0-2.92 3.147 30.524 30.524 0 0 0-2.58 6.75 3.214 3.214 0 0 1-1.022 1.827c-.535.48-1.217.77-1.938.825a14.755 14.755 0 0 0-6.105 2.543 14.57 14.57 0 0 0-4.355 4.94 53.806 53.806 0 0 0-3.7 7.917c-2.84 7.284-5.02 14.806-7.7 22.15-1.26 3.344-1.32 3.344-5.12 3.344-4.54 0-4.22-.692-4.28 4.256 0 1.564.48 2.355 2.16 2.276.52 0 1.3-.257 1.5.416.2.673-.48.97-.88 1.366a18.05 18.05 0 0 1-8.66 4.83c-3.8 1.009-7.68 1.8-11.38 3.028-9.5 3.147-18.28 7.541-25.12 14.984a55.305 55.305 0 0 0-9.48 15.518c-7.34 17.102-10.9 35.114-13.66 53.305-1.3 8.531-2.22 17.102-2.92 25.732C70.4 212.39 70 216.685 70 221h66.66a4.278 4.278 0 0 0-.46-2.534 9.9 9.9 0 0 0-3.025-4.032 10.039 10.039 0 0 0-4.635-2.044c-1.4-.317-1.56-.733-.7-1.821a20.41 20.41 0 0 0 3.18-6.136c3.26-9.521 4.52-19.458 6.1-29.295a58.966 58.966 0 0 1 6.88-21.437 42.908 42.908 0 0 1 11.18-12.609c1.66-1.247 1.72-1.247 2 .871.2 1.406.24 2.851.34 4.276.6 9.351.48 18.734-.36 28.067a120.805 120.805 0 0 0-.3 21.774A147.413 147.413 0 0 0 161.4 221H188a10.665 10.665 0 0 0-2.858-5.7 10.85 10.85 0 0 0-5.622-3.088 18.173 18.173 0 0 0-7.52.395c-1.2.278-1.7 0-1.8-1.286a110.44 110.44 0 0 1 2-31.314 348.463 348.463 0 0 0 6.12-35.985 34.886 34.886 0 0 1 4.56-13.856c2.38-4.196 4.46-8.551 6.8-12.767a11.506 11.506 0 0 0 .84-10.273c-.54-1.405-1.06-2.83-1.72-4.176-2-3.86-4-7.68-5.84-11.58-.98-1.98-.76-2.217 1.42-2.276 3.26 0 3.26 0 3.32-3.246V84.54c0-1.365-.52-2.117-2-1.979h-3.04c-1.38 0-1.78-.574-1.44-1.98a12.342 12.342 0 0 1 3.822-5.882 12.54 12.54 0 0 1 6.438-2.886 44.446 44.446 0 0 1 13.24.851 2.017 2.017 0 0 0 1.512-.126c.468-.237.823-.647.988-1.14.8-1.98 1.68-3.96 2.58-5.939a1.96 1.96 0 0 0-.2-2.256c-6.4-8.037-13.34-15.538-22.8-20.348a2.973 2.973 0 0 1-1.165-.887 2.939 2.939 0 0 1-.595-1.33 38.465 38.465 0 0 0-2.54-8.235A6.944 6.944 0 0 0 179.68 29z"></path></svg><svg viewBox="0 0 280 280" id="cat_walking"><path d="M250.2 95.6a30.402 30.402 0 0 1 9-9.2c2-1.4 3.2-1.4 4.4 1.2 1.6 3.8 3 7.8 1.8 12a4.577 4.577 0 0 0 .8 4.2c1.2 1.6 2.2 3.2 3.2 4.6a12.54 12.54 0 0 1 1.8 12.4 10.865 10.865 0 0 0-.4 6.2c.4 1.98.4 4.02 0 6a7.502 7.502 0 0 1-5.4 6.4 10.424 10.424 0 0 0-6.4 4 2.104 2.104 0 0 1-1.8 1c-2.4.4-8.4-5-8.4-7.4v-1.2c.2-7.2-.2-7.8-6.8-10.8a8.779 8.779 0 0 1-3.6-2.4c-1.2-1.6-2.8-1.4-4.6-.8-1.8.6-2.8 1.8-2.6 3.8.603 4.842.804 9.725.6 14.6.013.556.15 1.103.4 1.6 6.2 9 8.6 19.6 11.6 29.8 2.4 7.8 6.8 12 14.8 12.6 1.28.102 2.551.303 3.8.6a8.322 8.322 0 0 1 6.8 6.4c1.4 4.2.6 5.2-3.6 5.2h-13a6.481 6.481 0 0 1-4.6-1.6 23.413 23.413 0 0 0-6.8-4 14.525 14.525 0 0 1-6.8-5.2 57.213 57.213 0 0 0-8-9c-5.6-5.8-11.6-11.4-16.8-17.4a22.758 22.758 0 0 1-6.4-15.2c0-1.8-.4-2.6-2.4-1.8a3.865 3.865 0 0 1-2 .6c-5.6 0-8.4 3.4-10.4 8.4-1.8 4.2-4.2 8.2-6.4 12.4a20.786 20.786 0 0 0-2 8.4c0 4.8 1.2 6.4 5.6 8 2.8 1 5.4 2 6.8 4.8 1.6 3.2 1.2 4-2.2 4.2h-13.6a3.763 3.763 0 0 1-3.8-2.2l-3.6-6a12.103 12.103 0 0 1-1.4-10.8c.866-3.473.934-7.097.2-10.6a16.841 16.841 0 0 1 3.4-14c1.2-1.4 1.2-2-.8-2.4a100.105 100.105 0 0 1-23.6-8.2.197.197 0 0 1-.141-.059.197.197 0 0 1-.059-.141c-6.4-2.4-7.6-2-9.4 4.6-1.6 5.6-3.2 11.2-4.4 17-1.4 6.4.2 12.4 2.2 18.4.8 2.4 3.2 2.2 5 2.8 4 1.2 7.4 2.8 9 7 1.4 3.2 1.2 3.6-2.2 3.6-3.4 0-6.8-.2-10.4 0a13.278 13.278 0 0 1-8.4-2.8c-9.6-6.4-12.4-16.2-13.2-26.8-.4-6.6-4-11.8-8.2-16.8-.8-1-1.6-1.4-2.8-.6a88.649 88.649 0 0 1-13.4 6 53.421 53.421 0 0 0-24.4 17.6 21.26 21.26 0 0 0-4.4 10.2c-.6 3.6.4 5.2 4 6.2s5.4 3 5.8 6.8c.2 1.6-.4 2.4-2 2.4H53.4a3.308 3.308 0 0 1-2.6-1.6 17.121 17.121 0 0 1-3.8-11c-.105-6.91.498-13.813 1.8-20.6a12.594 12.594 0 0 1 6.8-9.6c11.8-5.6 18-16.2 23.6-27.2 1.2-2.2.2-2.6-1.8-2.4a32.94 32.94 0 0 0-15.4 6.4 141.256 141.256 0 0 0-16.6 14.2 33.343 33.343 0 0 1-20.6 9.8c-14.6.8-21.4-7.4-20.8-20.6a19.378 19.378 0 0 1 4.8-12.2 8.504 8.504 0 0 1 9-3c3 .8 3.8 2.4 2.6 5.4-.6 1.2-1.4 2.2-2 3.4a15 15 0 0 0-2 4c-2.2 6 .8 10.2 7 10.8 6.6.6 12-2.2 17-6.2a89.903 89.903 0 0 0 16-16.6A41.579 41.579 0 0 1 85.2 97c4.6-.6 8.6-2.6 13-3.8a83.02 83.02 0 0 1 25.4-3.6 26.001 26.001 0 0 0 11.6-2.2c9.8-4 20-4 30.2-2 8 1.6 16 3.6 23.8 5.6a33.16 33.16 0 0 0 14-.4 135.58 135.58 0 0 1 26.8-4 36.32 36.32 0 0 1 17.2 3.4c4 1.8 4 1.8 3 5.6z"></path></svg><svg viewBox="0 0 27 34" id="copyright-html-academy"><path fill="#666" d="M13.64.02 13.5 0 0 1.4v24.61L13.5 34 27 26.01V1.41L13.64 0Zm11.6 25L13.5 31.96 1.77 25.02v-10.1l11.68 6.93.02 1.25-8.02-4.75v1.23l8.04 4.8.02 1.3-8.05-4.76v1.22l8.04 4.81 8.12-4.83V16.9l3.62-2.15v10.26Zm0-11.57L22 15.33l-1.48.88-7.06-4.19-.01 1.23 6.04 3.57-.06.03-.13.07-.86.5-4.98-2.95-.01 1.22 3.93 2.33-.93.61-.02.01-2.97-1.74-.01 1.23 1.94 1.13-1.98 1.19L1.8 13.58l11.63-6.96 11.8 6.83Zm0-1.22L13.43 5.3 1.77 12.22V2.99L13.5 1.76 25.23 3v9.24Z"></path></svg><svg viewBox="0 0 24 24" id="cross"><path stroke="#000" stroke-width="1.5" d="m3.5 21.5 17-18m-17 0 17 18"></path></svg><svg viewBox="0 0 40 40" id="features_alarm"><path d="M12.75 5c-1 0-1 1.5 0 1.5H19v1.52c-6.4.41-11.46 5.9-11.46 12.6 0 3.8 1.64 7.23 4.23 9.54.45.4.51 1.11.1 1.55l-1.44 1.47c-.7.65.34 1.66.97.95l1.88-1.93c.33-.32.82-.4 1.23-.2a11.88 11.88 0 0 0 10.41.06c.4-.2.9-.12 1.22.2l1.82 1.87c.64.6 1.56-.3.98-.95l-1.36-1.4c-.42-.43-.36-1.14.1-1.55A12.75 12.75 0 0 0 32 20.61c0-6.7-5.09-12.2-11.5-12.59V6.5h6.25c1 0 1-1.5 0-1.5h-14ZM8.89 20.61c0-6.19 4.87-11.2 10.88-11.2 6 0 10.87 5.01 10.87 11.2 0 6.2-4.87 11.22-10.87 11.22-6 0-10.88-5.02-10.88-11.22Zm10.12-7.67c0-1.04 1.56-1.04 1.56 0v8.18a.8.8 0 0 1-.8.8.76.76 0 0 1-.76-.75v-8.23Zm-4.68 2.48a1.09 1.09 0 1 0 0-2.18 1.09 1.09 0 0 0 0 2.17v.01Zm10.87 0a1.09 1.09 0 1 0 0-2.18 1.09 1.09 0 0 0 0 2.17v.01Zm-9.78 11.93c0 1.45-2.18 1.45-2.18 0s2.18-1.45 2.18 0Zm4.35 3.26a1.1 1.1 0 1 0 .2-2.17 1.1 1.1 0 0 0-.2 2.17Zm-7.61-9.84a1.1 1.1 0 1 1-2.17.2 1.1 1.1 0 0 1 2.17-.2Zm16.3 1.09a1.1 1.1 0 1 0 .2-2.17 1.1 1.1 0 0 0-.2 2.17Zm-2.17 5.5c0 1.44-2.18 1.44-2.18-.01s2.18-1.45 2.18 0v.01Z" fill="#fff"></path></svg><svg viewBox="0 0 40 40" id="features_eat"><path d="M9.5 5a1 1 0 0 1 1 1v5.5c0 .56.2 1.32.7 1.92.36.42.92.82 1.8.99V6a1 1 0 1 1 2 0v8.41a3.02 3.02 0 0 0 1.8-1c.5-.6.7-1.35.7-1.91V6a1 1 0 1 1 2 0v5.5c0 .94-.3 2.18-1.17 3.2A5.11 5.11 0 0 1 15 16.45V34a1 1 0 1 1-2 0V16.44a5.11 5.11 0 0 1-3.33-1.73A5.07 5.07 0 0 1 8.5 11.5V6a1 1 0 0 1 1-1Zm17.12.08a1 1 0 0 1 1.09.21c.9.91 2.1 2.88 3.06 5.92A42.6 42.6 0 0 1 32.5 24a1 1 0 0 1-1 1H28v9a1 1 0 1 1-2 0V6a1 1 0 0 1 .62-.92ZM28 23h2.5a39.61 39.61 0 0 0-1.64-11.19 22.4 22.4 0 0 0-.86-2.3V23Z" fill="#fff"></path></svg><svg viewBox="0 0 40 40" id="features_leaf"><path d="M32.84 6.77a.95.95 0 0 0-.9-.77h-.01c-4.94.03-16.95.92-21.8 8.38-2.51 3.88-2.73 8.91-.64 14.96l.07.13a25.93 25.93 0 0 0-1.04 3.32 1 1 0 0 0 .72 1.19l.2.02c.43 0 .81-.32.9-.79.03-.1 2.42-10.37 10.86-16.38.43-.3.55-.92.26-1.38a.9.9 0 0 0-1.3-.28c-4.79 3.4-7.74 8-9.47 11.65-1.24-4.57-.92-8.37.99-11.3 3.74-5.76 12.62-7.15 17.98-7.45-1.16 1.8-2.41 5.1-2.41 10.93 0 3.12-.83 5.52-2.47 7.14-2.62 2.6-6.88 2.83-10 2.58-.51-.04-.96.38-1 .93-.04.55.35 1.03.86 1.07.63.05 1.3.08 1.98.08 3.18 0 6.87-.66 9.43-3.2 2.04-2 3.07-4.9 3.07-8.6 0-9.1 3.22-11.1 3.23-11.1.4-.21.6-.68.5-1.13Z" fill="#fff"></path></svg><svg viewBox="0 0 40 40" id="features_tub"><path d="M17.6 3.99c-1.75 0-3.18 1.52-3.18 3.4 0 1.89 1.43 3.41 3.19 3.41s3.18-1.52 3.18-3.4c0-1.89-1.42-3.41-3.18-3.41zm0 1.34c1.07 0 1.94.92 1.94 2.07 0 1.14-.87 2.06-1.93 2.06-1.07 0-1.94-.92-1.94-2.06 0-1.15.87-2.07 1.94-2.07zM6.95 11.5c-.53 0-.58.6-.59.78v18.54c.35 2.41 1.4 3.94 3.93 4.19h20.58c2.36-.55 3.54-1.68 3.79-4.2V12.17c0-.58-.38-.65-.53-.66h-.5c-.5 0-.54.56-.54.68v18.66c-.32 1.54-.8 2.2-2.44 2.5 0 0-20.18 0-20.66-.04-1.47-.5-1.96-1.2-2.06-2.85V12.3c0-.83-.67-.8-.67-.8h-.3zM26 13.62c-.92-.02-1.5.14-1.5.14-1.2.27-2.35.42-4.66 2.6-2.3 2.17-4.02 2.07-5.74 1.96-1.71-.1-3.45-1.67-3.82-2.07-.37-.4-1.03-.13-1.2.13-.17.26-.17.71.12 1.13 1.4 1.28 2.72 2.3 5.25 2.54 2.52.24 4.9-.89 6.5-2.49 1.59-1.6 2.42-1.91 3.55-2.15 2.9-.45 4.56.69 5.62 1.45 1.07 1.18 1.37.86 1.71.52.61-.79-.25-1.36-1.15-2.12A8 8 0 0 0 26 13.62zm-11.77 8c-1.3 0-2.35 1.11-2.35 2.5 0 1.38 1.05 2.5 2.35 2.5 1.29 0 2.34-1.12 2.34-2.5 0-1.39-1.05-2.5-2.34-2.5zm12.55.85c-1.71 0-3.1 1.48-3.1 3.3 0 1.83 1.39 3.3 3.1 3.3 1.7 0 3.09-1.47 3.09-3.3 0-1.82-1.39-3.3-3.1-3.3zm0 1.6c.88 0 1.6.76 1.6 1.7 0 .95-.72 1.72-1.6 1.72-.89 0-1.6-.77-1.6-1.71 0-.95.71-1.72 1.6-1.72z" fill="#fff"></path></svg><svg viewBox="0 0 20 20" id="form_email"><path d="M1.5 8.5v8h17v-8m-17-5h17v2l-8.5 6-8.5-6z" fill="none" stroke="#000" stroke-linecap="round" stroke-linejoin="round"></path></svg><svg viewBox="0 0 20 20" id="form_phone"><path d="M10 10h8.5m0 0L16 7.5m2.5 2.5L16 12.5m-7.5-10v5h-3v5h3v5H6c-1.5 0-2.5-1-2.5-2.5V5c0-1.5 1-2.5 2.5-2.5z" fill="none" stroke="#000" stroke-linecap="round" stroke-linejoin="round"></path></svg><svg viewBox="0 0 60 60" id="htmlacademy"><path fill="#2E368F" d="M30.2 5H30L10.3 7.1v36.2L30 55l19.7-11.7V7.1L30.2 5zm17 36.8L30 52 12.8 41.8V27l17.1 10.2V39l-11.7-7v1.8L30 40.9v1.9l-11.8-7v1.8l11.8 7 11.9-7.1v-7.6l5.3-3.2v15.1zm-.1-17-4.7 2.8-2.2 1.3-10.3-6.1v1.8l8.8 5.3h-.1l-.2.1-1.3.7-7.3-4.3v1.8l5.8 3.4-1.4.9-4.3-2.6v1.8l2.9 1.7-2.9 1.7-17-10.1 17-10.2 17.2 10zm.1-1.8L29.9 12.8 12.8 23V9.4L30 7.6l17.2 1.8V23z"></path></svg><svg viewBox="0 0 2 2" id="plus"><path d="M1 0v2M0 1h2" fill="none" stroke="#d3d3d3" stroke-width="2" vector-effect="non-scaling-stroke"></path></svg><svg fill="none" id="promo_gift" viewBox="0 0 78 80"><path d="M64.016 34.713H14.03c-1.754 0-3.182-1.418-3.182-3.16v-9.469c0-1.742 1.428-3.16 3.182-3.16h49.984c1.754 0 3.18 1.418 3.18 3.16v9.469c0 1.742-1.426 3.16-3.18 3.16ZM14.03 21.346a.751.751 0 0 0-.744.738v9.469c0 .407.334.738.744.738h49.984c.41 0 .743-.331.743-.738v-9.469a.75.75 0 0 0-.743-.738H14.03Z" fill="#fff"></path><path d="M57.045 67.149H20.999c-3.377 0-6.125-2.73-6.125-6.086V33.502c0-.669.546-1.212 1.219-1.212s1.219.543 1.219 1.212v27.56c0 2.021 1.654 3.665 3.687 3.665h36.046c2.032 0 3.686-1.644 3.686-3.664V33.502c0-.669.546-1.212 1.219-1.212.672 0 1.218.543 1.218 1.212v27.56c0 3.357-2.747 6.087-6.123 6.087Z" fill="#fff"></path><path d="M39.023 67.149a1.215 1.215 0 0 1-1.22-1.211V33.502c0-.669.547-1.212 1.22-1.212.672 0 1.218.543 1.218 1.212v32.435c0 .67-.545 1.212-1.218 1.212ZM23.811 21.341c-3.814-2.054-5.238-6.808-3.173-10.6 2.064-3.789 6.848-5.204 10.665-3.154 5.814 3.13 8.954 11.86 9.084 12.23l-2.3.804c-.029-.083-2.961-8.222-7.944-10.904-2.635-1.415-5.937-.438-7.36 2.177-1.426 2.618-.444 5.9 2.19 7.318l-1.162 2.13Z" fill="#fff"></path><path d="m54.231 21.341-1.16-2.13a5.376 5.376 0 0 0 2.622-3.207 5.327 5.327 0 0 0-.431-4.109 5.382 5.382 0 0 0-3.226-2.604 5.426 5.426 0 0 0-4.134.426c-4.982 2.682-7.915 10.82-7.944 10.903l-2.3-.803c.131-.37 3.27-9.101 9.084-12.23a7.859 7.859 0 0 1 5.99-.617 7.8 7.8 0 0 1 4.674 3.771 7.72 7.72 0 0 1 .623 5.953 7.788 7.788 0 0 1-3.798 4.647ZM61.95 50.931H16.093a1.215 1.215 0 0 1-1.219-1.21c0-.67.546-1.212 1.219-1.212H61.95c.672 0 1.218.543 1.218 1.211 0 .669-.545 1.211-1.218 1.211Z" fill="#fff"></path></svg><svg fill="none" id="slider__toggle" viewBox="0 0 24 18"><path d="M8 0 0 9l8 9V0ZM24 9l-8-9v18l8-9Z" fill="#666"></path></svg><svg fill="none" id="social_telegram" viewBox="0 0 28 22"><path fill-rule="evenodd" clip-rule="evenodd" d="M23.46 3.153c.18.15.265.382.227.611l-2.626 15.757a.657.657 0 0 1-1.012.439l-7.878-5.253a.657.657 0 0 1-.149-.956l2.611-3.263-4.36 2.906a.657.657 0 0 1-.658.041L4.363 10.81a.657.657 0 0 1 .073-1.205l18.383-6.566a.657.657 0 0 1 .642.115Zm-17.134 7.17 3.536 1.768 7.561-5.041a.656.656 0 0 1 .877.956l-4.805 6.006 6.438 4.292L22.208 4.65 6.326 10.323Z" fill="#666"></path></svg><svg fill="none" id="social_vkontakte" viewBox="0 0 28 22"><path d="M1 5.339c0-.855.515-1.316 1.545-1.383l3.97.025a.52.52 0 0 1 .533.377c.409 1.257.866 2.343 1.372 3.257.506.913 1.168 1.965 1.985 3.156.071.15.187.226.346.226.125 0 .223-.059.293-.176l.08-.277.027-4.35c0-.302-.075-.503-.226-.604-.151-.1-.431-.176-.84-.226-.32-.05-.48-.235-.48-.553 0-.067.01-.118.027-.151.373-1.09 1.44-1.635 3.198-1.635L14.322 3c.675 0 1.234.16 1.678.478.444.318.666.821.666 1.509v5.708c.125.084.24.126.347.126.266 0 .497-.15.692-.453 1.954-2.582 3.011-4.308 3.17-5.18 0-.017.019-.059.054-.126.125-.251.329-.47.613-.654.284-.184.533-.31.746-.377a.554.554 0 0 1 .24-.05h4.13l.266.025c.355 0 .63.16.826.478.07.1.12.21.146.327.027.117.045.234.054.352.009.117.013.184.013.2v.177c-.124.687-.44 1.42-.946 2.2-.506.78-1.15 1.622-1.931 2.528-.782.905-1.27 1.5-1.466 1.785-.16.201-.24.386-.24.553 0 .135.071.286.213.453l3.89 4.627c.213.269.32.562.32.88 0 .386-.16.705-.48.956-.32.252-.701.394-1.145.428l-.453.025h-4.05a.855.855 0 0 0-.106.012.862.862 0 0 1-.107.013c-.39 0-.755-.16-1.092-.478-.125-.134-.96-1.123-2.505-2.967a1.387 1.387 0 0 0-.373-.327c-.07.268-.164.654-.28 1.157-.115.503-.2.863-.253 1.081l-.08.427c-.177.587-.55.94-1.119 1.057l-.373.025h-2.61c-1.475 0-2.945-.637-4.41-1.911-1.466-1.275-2.784-2.922-3.957-4.942-1.172-2.02-2.264-4.372-3.277-7.054A1.916 1.916 0 0 1 1 5.338Zm16.013 6.513c-.373 0-.71-.096-1.013-.29-.302-.192-.453-.456-.453-.791V4.987c0-.336-.089-.575-.266-.717-.178-.143-.489-.214-.933-.214l-1.518.05c-.764 0-1.341.126-1.732.378.781.352 1.172.922 1.172 1.71v4.426a1.5 1.5 0 0 1-.533 1.044 1.59 1.59 0 0 1-1.066.414c-.532 0-.94-.243-1.225-.729C8.06 9.371 7.03 7.493 6.356 5.716l-.24-.654-3.544-.025c-.231 0-.36.013-.386.038-.027.025-.04.096-.04.213 0 .151.017.31.053.478l.56 1.409c1.491 3.638 3.112 6.505 4.862 8.6 1.75 2.096 3.468 3.144 5.155 3.144h2.665c.106 0 .186-.03.24-.088.053-.06.097-.172.133-.34l.053-.251.506-2.213c.142-.302.267-.503.373-.604a.975.975 0 0 1 .693-.277c.426 0 .861.243 1.305.73l2.265 2.716c.142.218.293.327.453.327h4.396c.533 0 .8-.126.8-.378a.466.466 0 0 0-.08-.251l-3.864-4.552c-.302-.352-.453-.73-.453-1.131 0-.403.142-.788.427-1.157.23-.336.679-.893 1.345-1.673a37.63 37.63 0 0 0 1.745-2.187c.498-.68.826-1.296.986-1.849l.08-.327a.371.371 0 0 1-.027-.163.574.574 0 0 0-.026-.189h-4.183c-.267.1-.48.252-.64.453l-.16.478c-.444 1.156-1.607 2.942-3.49 5.356a1.892 1.892 0 0 1-1.305.503Z" fill="#666"></path></svg><svg fill="none" id="social_youtube" viewBox="0 0 28 22"><path d="m17.85 10.793-5.236-3.491a.655.655 0 0 0-1.014.545v6.982a.654.654 0 0 0 1.014.546l5.237-3.491a.655.655 0 0 0 0-1.091Zm-4.94 2.814V9.07l3.403 2.27-3.404 2.268Zm12.48-8.563a2.4 2.4 0 0 0-1.452-1.637C20.218 1.978 14.251 2 14 2c-.25 0-6.218-.022-9.938 1.407A2.4 2.4 0 0 0 2.61 5.044C2.327 6.113 2 8.076 2 11.338c0 3.262.327 5.226.61 6.295a2.4 2.4 0 0 0 1.452 1.636c3.72 1.43 9.687 1.407 9.938 1.407h.076c.753 0 6.317-.043 9.862-1.407a2.4 2.4 0 0 0 1.451-1.636c.284-1.07.611-3.033.611-6.295s-.327-5.225-.61-6.294Zm-1.266 12.261a1.09 1.09 0 0 1-.655.742c-3.49 1.342-9.404 1.32-9.469 1.32-.066 0-5.978.022-9.47-1.32a1.09 1.09 0 0 1-.654-.742c-.261-1.003-.567-2.847-.567-5.967 0-3.12.306-4.963.567-5.967a1.09 1.09 0 0 1 .655-.742C8.02 3.287 13.935 3.31 14 3.31c.066 0 5.978-.022 9.47 1.32a1.092 1.092 0 0 1 .654.742c.262 1.004.567 2.847.567 5.967 0 3.12-.305 4.964-.567 5.967Z" fill="#666"></path></svg><svg viewBox="0 0 30 30" id="tick-checkbox"><path fill="#68B738" d="m13 19.72-5.7-6.45-1.05 1.19L13 22.09 24.25 9.37 23.2 8.09 13 19.72Z"></path></svg><svg viewBox="0 0 30 30" id="tick-radio"><circle cx="15" cy="15" r="6.5" fill="#68B738"></circle></svg></svg>